<svg width="39" height="39" viewBox="0 0 39 39" fill="none" xmlns="http://www.w3.org/2000/svg">
<g clip-path="url(#clip0_127_562)">
<path d="M27.7979 27.7875H18.0479V14.592L26.4783 19.2105L27.7979 27.7875Z" fill="#2F2E41"/>
<path d="M19.8486 25.4586C23.3447 25.4586 26.1787 22.6245 26.1787 19.1285C26.1787 15.6325 23.3447 12.7984 19.8486 12.7984C16.3526 12.7984 13.5186 15.6325 13.5186 19.1285C13.5186 22.6245 16.3526 25.4586 19.8486 25.4586Z" fill="#FFB6B6"/>
<path d="M16.215 26.3946L15.929 23.5038L21.6398 22.436L25.012 30.6465L19.1473 37.3909L14.9688 29.1803L16.215 26.3946Z" fill="#FFB6B6"/>
<path d="M33.5044 33.0686C33.4333 33.1426 33.3607 33.216 33.2881 33.2885C33.058 33.5187 32.8234 33.7423 32.5836 33.9593C28.9915 37.2171 24.3827 39 19.4996 39C14.9977 39 10.729 37.4847 7.27543 34.6953C7.27324 34.6938 7.27177 34.6924 7.26957 34.6902C7.16474 34.6059 7.06137 34.5201 6.95801 34.4329C6.97633 34.3801 6.99613 34.328 7.01592 34.2767C8.12654 31.3832 10.3199 29.9677 11.6512 29.3482C12.311 29.041 12.7589 28.9289 12.7589 28.9289L14.3218 26.1138L15.4222 28.1665L16.233 29.6796L19.5597 35.8866L22.4297 28.7405L23.3189 26.5251L23.5469 25.9577L24.6312 26.8015L25.6575 27.5998L27.724 28.0558L29.4006 28.426L31.6776 28.9289C32.5983 29.6788 33.1584 31.1054 33.4714 32.878C33.4831 32.9411 33.4941 33.0048 33.5044 33.0686Z" fill="#FFCF4F"/>
<path d="M16.5193 11.9348C17.2903 10.6396 18.7065 9.75095 20.2081 9.61997C21.7098 9.489 23.2584 10.1191 24.2421 11.2612C24.8282 11.9418 25.2126 12.7754 25.7839 13.4685C27.0135 14.96 29.1101 15.832 29.6472 17.6889C29.8816 18.4991 29.7648 19.3642 29.6462 20.1993C29.5446 20.9151 29.4429 21.6309 29.3413 22.3467C29.2621 22.9037 29.1863 23.491 29.3952 24.0134C29.6402 24.6263 30.2267 25.0278 30.6058 25.5681C31.251 26.4875 31.2038 27.8336 30.4959 28.7055C30.1889 29.0837 29.7818 29.3689 29.46 29.7345C29.1381 30.1001 28.8993 30.5999 29.0341 31.068C29.2924 31.9647 30.6986 32.1797 30.8528 33.1C30.9317 33.5705 30.6067 34.0403 30.1809 34.2555C29.7551 34.4706 29.2538 34.4769 28.7802 34.4193C26.9803 34.2005 25.3137 33.0759 24.4374 31.4885C23.561 29.9011 23.4972 27.8916 24.2711 26.2518C24.9067 24.905 26.088 23.7149 26.0751 22.2257C26.0681 21.4145 25.696 20.6567 25.3321 19.9316C24.5874 18.4474 23.8426 16.9632 23.0979 15.479C22.6989 14.684 22.236 13.8273 21.4146 13.4857C20.7799 13.2218 20.0597 13.3241 19.3807 13.4321C18.7018 13.5401 17.9826 13.6452 17.346 13.3858C16.7093 13.1264 16.2283 12.3558 16.5316 11.7389" fill="#2F2E41"/>
<path d="M17.6282 12.0025C16.4052 11.5999 15.0333 12.2462 14.2053 13.2322C13.3774 14.2182 12.9758 15.4832 12.5932 16.7125C12.374 17.4167 12.1548 18.1209 11.9357 18.8251C11.7295 19.4875 11.5234 20.15 11.3172 20.8124C11.0747 21.5916 10.8302 22.4193 11.0292 23.2107C11.1731 23.7829 11.5433 24.3024 11.5513 24.8923C11.5596 25.5085 11.1737 26.0495 10.8355 26.5646C10.4974 27.0798 10.1799 27.6919 10.341 28.2867C10.5861 29.1915 11.844 29.6888 11.775 30.6236C11.752 30.9356 11.5716 31.2242 11.5749 31.537C11.5791 31.935 11.8907 32.2789 12.2557 32.4374C12.6208 32.596 13.0315 32.6046 13.4294 32.5976C14.6501 32.5762 15.8686 32.4312 17.0602 32.1657C17.5187 32.0635 17.9849 31.9382 18.3666 31.6644C18.7482 31.3905 19.0329 30.9368 18.9832 30.4697C18.9058 29.7419 18.1233 29.3289 17.7283 28.7127C17.3404 28.1073 17.3494 27.3404 17.1822 26.6412C16.9523 25.6802 16.3845 24.8413 15.9584 23.9498C14.3561 20.5985 14.917 16.3267 17.3301 13.5026C17.5435 13.2529 17.7766 13.0017 17.8656 12.6855C17.9546 12.3694 17.8399 11.9666 17.5306 11.856" fill="#2F2E41"/>
<path d="M33.2886 5.71145C29.6055 2.02844 24.7086 0 19.5 0C14.2914 0 9.39446 2.02844 5.71145 5.71145C2.02844 9.39445 0 14.2914 0 19.5C0 24.254 1.68975 28.7486 4.7863 32.2974C5.08173 32.6368 5.39036 32.9675 5.71145 33.2886C5.78696 33.3641 5.86319 33.4396 5.94017 33.5129C6.14543 33.7115 6.35436 33.9058 6.56696 34.0942C6.69598 34.2093 6.82647 34.3222 6.95842 34.4329C7.06179 34.5201 7.16515 34.6059 7.26998 34.6902C7.27218 34.6924 7.27365 34.6939 7.27585 34.6953C10.7294 37.4847 14.9981 39 19.5 39C24.3831 39 28.992 37.2171 32.5841 33.9593C32.8238 33.7423 33.0584 33.5187 33.2886 33.2886C33.3611 33.216 33.4337 33.1427 33.5048 33.0686C33.7027 32.8648 33.8948 32.6574 34.0825 32.447C37.2619 28.8754 39 24.3215 39 19.5C39 14.2914 36.9716 9.39445 33.2886 5.71145L33.2886 5.71145ZM34.0348 32.2644C33.8516 32.4726 33.6639 32.6779 33.4718 32.878C33.1727 33.1896 32.8641 33.4916 32.5452 33.7826C32.4242 33.8941 32.3018 34.0026 32.1779 34.1103C30.9266 35.199 29.5337 36.1285 28.0316 36.8689C27.5045 37.1292 26.9643 37.366 26.4115 37.5778C24.2643 38.4018 21.9338 38.8534 19.5 38.8534C17.1512 38.8534 14.8992 38.4326 12.815 37.6629C11.9595 37.3476 11.1326 36.973 10.3387 36.5442C10.2221 36.4811 10.1063 36.4173 9.99118 36.3521C9.38566 36.009 8.79992 35.6344 8.23765 35.2298C7.8176 34.9285 7.41 34.611 7.01634 34.2767C6.87852 34.1602 6.74217 34.0422 6.60801 33.9212C6.38955 33.7269 6.17549 33.5268 5.96656 33.3215C5.5707 32.9337 5.19243 32.5298 4.83102 32.1098C1.91262 28.72 0.146617 24.3127 0.146617 19.5C0.146617 8.82852 8.82852 0.146617 19.5 0.146617C30.1715 0.146617 38.8534 8.82852 38.8534 19.5C38.8534 24.3867 37.0331 28.8556 34.0348 32.2644Z" fill="#D9D9D9"/>
</g>
<defs>
<clipPath id="clip0_127_562">
<rect width="39" height="39" fill="white"/>
</clipPath>
</defs>
</svg>
