<svg width="36" height="36" viewBox="0 0 36 36" fill="none" xmlns="http://www.w3.org/2000/svg">
<path d="M27.8154 25.6506C30.4813 25.6506 33.0145 25.084 35.3027 24.0663C32.4317 30.5212 25.9636 35.0226 18.4434 35.0226C8.25732 35.0226 -0.000231415 26.7652 -0.000231415 16.579C-0.000231415 16.579 17.6293 25.6506 27.8154 25.6506Z" fill="#FFCF4F"/>
<path d="M19.597 10.5922L22.312 10.4965L23.165 8L24.0178 10.4965L26.7329 10.5922L24.5451 12.1189L25.37 14.7866L23.165 13.1216L20.96 14.7866L21.7848 12.1189L19.597 10.5922Z" fill="#FFCF4F"/>
<path d="M10.9561 0C9.93823 2.28818 9.37178 4.82145 9.37178 7.48733C9.37178 17.6735 17.6292 25.931 27.8154 25.931C30.4813 25.931 33.0145 25.3644 35.3027 24.3467C32.4317 30.8016 25.9636 35.303 18.4434 35.303C8.25732 35.303 -0.000231415 27.0455 -0.000231415 16.8593C-0.000231415 9.33906 4.50115 2.87096 10.9561 0Z" fill="#FFCF4F"/>
</svg>
