<svg width="218" height="212" viewBox="0 0 218 212" fill="none" xmlns="http://www.w3.org/2000/svg">
<g clip-path="url(#clip0_58_295)">
<path d="M115.65 160.91C112.408 161.407 110.036 163.483 110.353 165.547C110.67 167.612 113.554 168.881 116.797 168.384C118.095 168.202 119.331 167.713 120.401 166.956L134.111 164.676L133.196 159.254L119.517 161.191C118.269 160.789 116.943 160.693 115.65 160.91H115.65Z" fill="#FFB6B6"/>
<path d="M174.727 144.009L169.411 155.295L142.688 164.296L120.512 165.479L119.957 160.151L143.99 155.123L168.651 143.464L174.727 144.009Z" fill="#E6E6E6"/>
<path d="M114.096 120.399L113.367 120.415L114.76 183.754L115.489 183.738L114.096 120.399Z" fill="#3F3D56"/>
<path d="M114.111 148.444C114.045 148.219 112.535 142.877 115.806 137.626L116.425 138.012C113.331 142.977 114.796 148.186 114.811 148.239L114.111 148.444Z" fill="#3F3D56"/>
<path d="M116.062 138.032C116.062 138.032 115.067 131.231 124.23 129.364C126.138 128.975 127.933 128.709 129.578 128.532C131.519 128.323 132.277 130.982 130.523 131.841C127.982 133.085 125.593 134.653 124.347 136.509C120.912 141.627 116.062 138.032 116.062 138.032Z" fill="#FFCF4F"/>
<path d="M115.054 168.111L114.355 167.907C114.37 167.854 115.834 162.645 112.741 157.68L113.359 157.294C116.631 162.545 115.12 167.887 115.054 168.111Z" fill="#3F3D56"/>
<path d="M113.104 157.699C113.104 157.699 114.098 150.898 104.936 149.032C103.027 148.643 101.233 148.377 99.5877 148.2C97.6461 147.991 96.8887 150.65 98.6427 151.509C101.183 152.753 103.573 154.32 104.818 156.176C108.253 161.295 113.104 157.699 113.104 157.699H113.104Z" fill="#FFCF4F"/>
<path d="M125.856 111.604C127.7 111.118 129.424 110.27 129.367 109.432C129.299 108.435 126.739 107.768 124.53 107.666C126.196 106.362 127.727 104.56 127.259 103.744C126.828 102.995 124.826 103.285 122.979 103.945C124.072 102.382 124.841 100.62 124.255 100.017C123.526 99.2655 120.939 100.562 119.173 101.995C119.516 99.7624 119.343 96.9443 118.342 96.6894C117.505 96.4761 116.318 98.1154 115.504 99.9011C115.145 98.0271 114.417 96.248 113.577 96.248C112.38 96.248 111.41 99.8582 111.41 102.21C111.41 102.343 111.413 102.468 111.419 102.588C111.299 102.449 111.161 102.303 111.004 102.15C109.318 100.512 106.053 98.693 105.22 99.552C104.634 100.155 105.403 101.917 106.496 103.481C104.649 102.82 102.647 102.53 102.216 103.28C101.638 104.287 104.11 106.801 106.119 108.02C105.998 108.006 105.872 107.993 105.736 107.984C103.391 107.824 99.7249 108.547 99.6435 109.741C99.5863 110.58 101.311 111.428 103.155 111.914C101.319 112.605 99.6035 113.678 99.7592 114.528C99.9482 115.56 102.831 115.921 105.097 115.71C103.404 117.335 101.568 120.246 102.334 121.1C102.896 121.725 104.705 121.078 106.339 120.093C105.554 121.892 105.129 123.871 105.847 124.351C106.796 124.987 109.399 122.776 110.771 120.874C110.631 123.201 111.188 126.398 112.292 126.524C113.127 126.619 114.052 124.934 114.621 123.113C115.227 124.98 116.22 126.743 117.077 126.626C118.19 126.474 118.675 123.197 118.467 120.869C119.883 122.692 122.265 124.643 123.164 124.042C123.882 123.561 123.456 121.582 122.672 119.783C124.306 120.768 126.115 121.415 126.677 120.79C127.443 119.937 125.607 117.025 123.914 115.4C126.18 115.611 129.063 115.25 129.251 114.218C129.407 113.368 127.692 112.295 125.856 111.604ZM115.925 118.187C115.451 118.252 115.018 118.344 114.688 118.58C114.338 118.232 113.827 118.126 113.258 118.061C112.621 117.989 112.042 117.982 111.601 118.349C111.44 117.9 111.043 117.581 110.58 117.272C110.183 117.006 109.797 116.787 109.394 116.745C109.362 116.252 109.05 115.834 108.667 115.408C108.423 115.136 108.179 114.893 107.908 114.731C108.299 114.255 108.254 113.653 108.133 112.993C108.047 112.522 107.935 112.093 107.684 111.774C108.016 111.409 108.098 110.893 108.137 110.321C108.18 109.697 108.162 109.132 107.802 108.711C108.732 108.829 109.181 108.249 109.598 107.523C109.836 107.107 110.028 106.708 110.043 106.302C110.532 106.237 110.928 105.897 111.327 105.486C111.668 105.135 111.957 104.788 112.066 104.388C112.456 104.716 112.989 104.765 113.577 104.765C114.149 104.765 114.669 104.718 115.057 104.412C115.357 104.684 115.778 104.825 116.241 104.944C116.684 105.056 117.102 105.132 117.481 105.056C117.62 105.373 117.867 105.661 118.148 105.951C118.547 106.361 118.943 106.702 119.432 106.767C119.447 107.172 119.639 107.572 119.877 107.987C120.157 108.476 120.452 108.898 120.898 109.087C120.846 109.37 120.851 109.683 120.874 110.011C120.913 110.583 120.995 111.099 121.326 111.465C121.076 111.783 120.964 112.212 120.878 112.683C120.757 113.343 120.712 113.945 121.102 114.421C120.832 114.583 120.588 114.826 120.344 115.098C119.961 115.524 119.649 115.943 119.617 116.435C119.214 116.477 118.828 116.696 118.431 116.962C117.887 117.326 117.435 117.702 117.348 118.287C116.94 118.089 116.453 118.115 115.925 118.187Z" fill="#FFCF4F"/>
<path d="M114.66 119.323C118.935 119.323 122.4 115.856 122.4 111.58C122.4 107.303 118.935 103.836 114.66 103.836C110.386 103.836 106.921 107.303 106.921 111.58C106.921 115.856 110.386 119.323 114.66 119.323Z" fill="#3F3D56"/>
<path d="M21.3203 205.474C21.3203 205.714 21.5135 205.908 21.754 205.908H212.073C212.314 205.908 212.507 205.714 212.507 205.474C212.507 205.233 212.314 205.04 212.073 205.04H21.754C21.5135 205.04 21.3203 205.233 21.3203 205.474Z" fill="#3F3D56"/>
<path d="M125.439 186.862L120.666 198.94L114.49 194.726L118.139 182.087L125.439 186.862Z" fill="#FFB6B6"/>
<path d="M105.506 182.368L92.8728 194.446L97.9261 199.782L110.84 189.671L105.506 182.368Z" fill="#FFB6B6"/>
<path d="M177.095 143.045L176.955 142.061L173.726 135.742L163.058 138.55L165.023 147.258L177.095 143.045Z" fill="#FFB6B6"/>
<path d="M172.603 185.177L172.931 189.395C172.931 189.395 174.288 207.085 163.339 208.49C152.39 209.894 147.617 211.298 141.16 200.344L131.054 182.368L125.15 189.395L117.297 183.21C117.297 183.21 122.912 161.302 127.404 160.459C127.966 160.354 128.527 160.301 129.08 160.29C132.798 160.212 136.304 162.032 138.529 165.014L151.267 182.087L155.899 179.98L172.603 185.177H172.603Z" fill="#2F2E41"/>
<path d="M111.963 198.378L114.49 193.603L121.789 198.659C121.789 198.659 123.473 204.838 120.947 205.681C118.42 206.523 111.402 205.4 111.402 205.4C111.402 205.4 98.4875 208.209 98.2068 205.681C97.9261 203.153 104.102 202.591 104.102 202.591L111.963 198.378Z" fill="#2F2E41"/>
<path d="M139.476 195.007L119.964 182.707L109.998 191.637L103.26 183.772C103.26 183.772 115.613 165.515 119.262 164.672C122.912 163.83 128.808 163.268 128.808 163.268L146.775 179.84L139.476 195.007Z" fill="#2F2E41"/>
<path d="M92.592 193.322L99.049 200.344L98.1975 201.073C98.1975 201.073 96.5224 208.372 92.592 205.903C88.6617 203.434 88.3809 202.872 88.3809 202.872C88.3809 202.872 77.1513 205.4 76.0283 200.906C74.9054 196.412 77.9935 197.254 77.9935 197.254L80.7976 198.94L92.592 193.322L92.592 193.322Z" fill="#2F2E41"/>
<path d="M166.427 141.64C171.388 141.64 175.411 137.616 175.411 132.652C175.411 127.688 171.388 123.664 166.427 123.664C161.465 123.664 157.443 127.688 157.443 132.652C157.443 137.616 161.465 141.64 166.427 141.64Z" fill="#FFB6B6"/>
<path d="M164.321 145.432L177.235 141.5C177.235 141.5 182.289 153.297 181.446 158.633C180.604 163.97 172.931 189.395 172.931 189.395L155.899 179.98C155.899 179.98 155.618 174.363 154.776 171.835C153.934 169.307 151.267 161.583 157.162 155.122C163.058 148.662 164.321 145.432 164.321 145.432V145.432Z" fill="#E6E6E6"/>
<path d="M38.2045 56.8658L37.4761 56.8818L40.7556 205.993L41.484 205.977L38.2045 56.8658Z" fill="#3F3D56"/>
<path d="M39.2082 122.738C39.1708 122.611 35.5579 109.847 43.1434 97.673L43.7619 98.0587C36.3471 109.959 39.871 122.408 39.9075 122.533L39.2082 122.738Z" fill="#3F3D56"/>
<path d="M43.3267 98.3658C43.3267 98.3658 40.9853 82.3547 62.5546 77.9605C67.0483 77.045 71.2727 76.4194 75.1452 76.0025C79.7162 75.5104 81.4993 81.7708 77.3699 83.7928C71.3897 86.7212 65.7642 90.4109 62.8321 94.7801C54.7453 106.83 43.3267 98.3658 43.3267 98.3658Z" fill="#FFCF4F"/>
<path d="M40.4804 169.039L39.7812 168.834C39.8175 168.71 43.3346 156.249 35.9268 144.36L36.5452 143.974C44.1308 156.148 40.5178 168.912 40.4804 169.039Z" fill="#3F3D56"/>
<path d="M36.3621 144.667C36.3621 144.667 38.7034 128.656 17.1341 124.262C12.6405 123.346 8.41603 122.72 4.54358 122.304C-0.0274532 121.812 -1.81049 128.072 2.31886 130.094C8.2991 133.022 13.9246 136.712 16.8567 141.081C24.9434 153.132 36.3621 144.667 36.3621 144.667Z" fill="#FFCF4F"/>
<path d="M66.3827 36.1517C70.7244 35.0064 74.7843 33.0108 74.6497 31.0366C74.4897 28.6913 68.4621 27.1199 63.2621 26.8808C67.1843 23.8108 70.7881 19.5669 69.686 17.6475C68.6728 15.8829 63.9594 16.5665 59.6108 18.1206C62.1842 14.4395 63.9935 10.2915 62.6156 8.87194C60.8992 7.10366 54.8074 10.1557 50.65 13.5294C51.4593 8.27356 51.0502 1.63937 48.694 1.03915C46.7229 0.537009 43.9293 4.39618 42.0139 8.60011C41.1674 4.18842 39.4537 0 37.4759 0C34.6584 0 32.3744 8.49903 32.3744 14.0362C32.3744 14.3492 32.3827 14.6438 32.397 14.9253C32.1142 14.5973 31.7901 14.2546 31.4205 13.8955C27.4502 10.0378 19.765 5.75601 17.8021 7.77821C16.4242 9.19775 18.2335 13.3457 20.807 17.0268C16.4583 15.4727 11.7449 14.7892 10.7317 16.5538C9.37032 18.9248 15.1896 24.8435 19.9198 27.7138C19.6355 27.6795 19.3367 27.6507 19.0188 27.629C13.4973 27.2521 4.8667 28.9533 4.67489 31.7657C4.54024 33.7399 8.6002 35.7356 12.9418 36.8809C8.61933 38.5065 4.5809 41.0324 4.94745 43.0341C5.39232 45.4635 12.1778 46.3139 17.5131 45.8162C13.5272 49.6422 9.20531 56.4963 11.009 58.5051C12.3307 59.9771 16.5902 58.4535 20.4361 56.1353C18.5903 60.3702 17.5879 65.0285 19.2785 66.16C21.5128 67.6553 27.6403 62.451 30.871 57.9729C30.5418 63.4514 31.852 70.9777 34.4517 71.2747C36.4167 71.4992 38.5943 67.5323 39.9357 63.2452C41.3619 67.6394 43.6999 71.7908 45.7152 71.5157C48.3358 71.1579 49.4783 63.4432 48.9894 57.9608C52.3219 62.2546 57.9303 66.8468 60.0461 65.4308C61.7367 64.2993 60.7342 59.6411 58.8885 55.4061C62.7344 57.7243 66.9938 59.248 68.3156 57.7759C70.1193 55.7672 65.7973 48.9131 61.8115 45.087C67.1468 45.5848 73.9323 44.7343 74.3771 42.3049C74.7437 40.3032 70.7052 37.7774 66.3828 36.1517L66.3827 36.1517ZM43.0055 51.6481C41.8895 51.8005 40.869 52.0181 40.093 52.5737C39.2685 51.7548 38.0644 51.5055 36.7256 51.3525C35.2265 51.1812 33.8642 51.1647 32.8254 52.0302C32.4453 50.9731 31.5106 50.2222 30.4218 49.4935C29.4856 48.8669 28.5777 48.3526 27.6285 48.2534C27.5544 47.0935 26.8186 46.1078 25.9181 45.1049C25.3439 44.4654 24.7694 43.8936 24.1319 43.5112C25.0517 42.3908 24.9456 40.9747 24.661 39.4207C24.4581 38.3122 24.1943 37.3022 23.6042 36.5519C24.3842 35.6906 24.5783 34.4758 24.6701 33.1307C24.7702 31.662 24.7286 30.3304 23.8813 29.3389C26.071 29.6176 27.1277 28.2527 28.1099 26.5422C28.671 25.5651 29.122 24.6238 29.1563 23.6696C30.3079 23.5167 31.2408 22.7151 32.1795 21.7479C32.9815 20.9217 33.6637 20.1037 33.9199 19.1621C34.8388 19.9347 36.0927 20.0517 37.4759 20.0517C38.8234 20.0517 40.0481 19.9406 40.96 19.2206C41.668 19.8607 42.6572 20.1927 43.7487 20.4708C44.7907 20.7363 45.7743 20.9138 46.6685 20.7351C46.9949 21.4812 47.5753 22.1588 48.2382 22.8417C49.177 23.8088 50.1098 24.6104 51.2614 24.7634C51.2957 25.7175 51.7468 26.6588 52.3079 27.6359C52.9683 28.7861 53.662 29.7806 54.7111 30.2244C54.5886 30.8925 54.6017 31.6279 54.6545 32.4016C54.7462 33.7466 54.9404 34.9615 55.7204 35.8228C55.1302 36.5731 54.8665 37.5831 54.6635 38.6915C54.3789 40.2456 54.2729 41.6617 55.1926 42.782C54.5552 43.1645 53.9807 43.7362 53.4065 44.3757C52.506 45.3786 51.7702 46.3644 51.696 47.5242C50.7469 47.6234 49.839 48.1377 48.9028 48.7643C47.6241 49.6201 46.559 50.5071 46.3544 51.8843C45.3949 51.4186 44.2463 51.4787 43.0055 51.6481V51.6481Z" fill="#FFCF4F"/>
<path d="M40.0266 54.3218C50.0891 54.3218 58.2463 46.1605 58.2463 36.093C58.2463 26.0255 50.0891 17.8642 40.0266 17.8642C29.9641 17.8642 21.8069 26.0255 21.8069 36.093C21.8069 46.1605 29.9641 54.3218 40.0266 54.3218Z" fill="#3F3D56"/>
<path d="M208.365 169.984L207.636 170L208.42 205.629L209.149 205.613L208.365 169.984Z" fill="#3F3D56"/>
<path d="M208.061 185.808C208.024 185.679 207.155 182.607 209.033 179.594L209.651 179.98C207.951 182.708 208.753 185.575 208.761 185.603L208.061 185.808Z" fill="#3F3D56"/>
<path d="M209.312 179.906C209.312 179.906 208.752 176.081 213.906 175.031C214.98 174.812 215.989 174.662 216.914 174.563C218.007 174.445 218.433 175.941 217.446 176.424C216.017 177.124 214.673 178.006 213.972 179.05C212.04 181.929 209.312 179.906 209.312 179.906Z" fill="#FFCF4F"/>
<path d="M208.898 196.871L208.198 196.666C208.206 196.638 209.008 193.771 207.308 191.043L207.927 190.657C209.804 193.67 208.936 196.742 208.898 196.871Z" fill="#3F3D56"/>
<path d="M207.648 190.969C207.648 190.969 208.207 187.144 203.053 186.094C201.98 185.875 200.97 185.726 200.045 185.626C198.953 185.508 198.527 187.004 199.513 187.487C200.942 188.187 202.286 189.069 202.987 190.113C204.919 192.992 207.648 190.969 207.648 190.969V190.969Z" fill="#FFCF4F"/>
<path d="M214.821 165.041C215.858 164.767 216.828 164.29 216.796 163.819C216.758 163.258 215.317 162.883 214.075 162.826C215.012 162.092 215.873 161.078 215.61 160.62C215.368 160.198 214.242 160.361 213.202 160.733C213.817 159.853 214.25 158.862 213.92 158.523C213.51 158.1 212.055 158.83 211.061 159.636C211.255 158.38 211.157 156.795 210.594 156.651C210.123 156.531 209.456 157.453 208.998 158.458C208.796 157.404 208.386 156.403 207.914 156.403C207.24 156.403 206.695 158.434 206.695 159.757C206.695 159.832 206.697 159.902 206.7 159.969C206.632 159.891 206.555 159.809 206.467 159.723C205.518 158.801 203.682 157.778 203.213 158.261C202.884 158.601 203.316 159.592 203.931 160.471C202.892 160.1 201.766 159.937 201.523 160.358C201.198 160.925 202.589 162.339 203.719 163.025C203.651 163.017 203.579 163.01 203.504 163.005C202.184 162.915 200.122 163.321 200.076 163.993C200.044 164.465 201.014 164.942 202.051 165.215C201.019 165.604 200.054 166.207 200.141 166.685C200.248 167.266 201.869 167.469 203.144 167.35C202.191 168.264 201.159 169.902 201.59 170.382C201.905 170.734 202.923 170.37 203.842 169.816C203.401 170.828 203.162 171.941 203.566 172.211C204.099 172.568 205.564 171.325 206.335 170.255C206.257 171.564 206.57 173.362 207.191 173.433C207.661 173.487 208.181 172.539 208.501 171.515C208.842 172.565 209.401 173.557 209.882 173.491C210.508 173.405 210.781 171.562 210.665 170.252C211.461 171.278 212.801 172.375 213.306 172.037C213.71 171.767 213.471 170.653 213.03 169.642C213.949 170.195 214.967 170.56 215.282 170.208C215.713 169.728 214.681 168.09 213.728 167.176C215.003 167.295 216.624 167.092 216.731 166.511C216.818 166.033 215.853 165.429 214.821 165.041ZM209.235 168.744C208.968 168.78 208.724 168.832 208.539 168.965C208.342 168.769 208.054 168.71 207.734 168.673C207.376 168.632 207.051 168.628 206.802 168.835C206.712 168.582 206.488 168.403 206.228 168.229C206.004 168.079 205.787 167.956 205.561 167.933C205.543 167.655 205.367 167.42 205.152 167.18C205.015 167.027 204.878 166.891 204.725 166.799C204.945 166.532 204.92 166.193 204.852 165.822C204.803 165.557 204.74 165.316 204.599 165.137C204.786 164.931 204.832 164.641 204.854 164.319C204.878 163.968 204.868 163.65 204.665 163.413C205.189 163.48 205.441 163.154 205.676 162.745C205.81 162.511 205.918 162.287 205.926 162.059C206.201 162.022 206.424 161.83 206.648 161.599C206.84 161.402 207.003 161.206 207.064 160.982C207.284 161.166 207.583 161.194 207.914 161.194C208.236 161.194 208.528 161.168 208.746 160.995C208.915 161.148 209.152 161.228 209.412 161.294C209.661 161.358 209.896 161.4 210.11 161.357C210.188 161.536 210.327 161.698 210.485 161.861C210.709 162.092 210.932 162.283 211.208 162.32C211.216 162.548 211.323 162.773 211.458 163.006C211.615 163.281 211.781 163.519 212.032 163.625C212.003 163.784 212.006 163.96 212.018 164.145C212.04 164.466 212.087 164.757 212.273 164.962C212.132 165.142 212.069 165.383 212.02 165.648C211.952 166.019 211.927 166.358 212.147 166.625C211.995 166.717 211.857 166.853 211.72 167.006C211.505 167.246 211.329 167.481 211.311 167.758C211.085 167.782 210.868 167.905 210.644 168.055C210.338 168.259 210.084 168.471 210.035 168.8C209.806 168.689 209.531 168.703 209.235 168.744Z" fill="#FFCF4F"/>
<path d="M208.523 169.382C210.927 169.382 212.876 167.432 212.876 165.027C212.876 162.621 210.927 160.671 208.523 160.671C206.119 160.671 204.17 162.621 204.17 165.027C204.17 167.432 206.119 169.382 208.523 169.382Z" fill="#3F3D56"/>
<path d="M135.898 204.412C133.797 206.931 133.392 210.058 134.995 211.396C136.597 212.734 139.6 211.776 141.702 209.256C142.555 208.26 143.158 207.075 143.46 205.799L152.23 195.013L147.958 191.554L138.984 202.062C137.783 202.587 136.725 203.393 135.898 204.412Z" fill="#FFB6B6"/>
<path d="M174.227 151.099L177.279 163.195L162.34 187.122L147.089 202.457L142.146 198.354L157.527 179.207L169.185 154.536L174.227 151.099Z" fill="#E6E6E6"/>
<path d="M158.145 131.107C160.449 131.102 160.58 131.117 160.952 131.107C163.81 131.032 164.557 129.907 166.006 129.984C168.591 130.121 165.179 143.088 163.76 149.083C162.368 154.963 167.071 160.232 167.409 160.6C172.183 165.794 180.569 166.744 182.008 164.532C183.173 162.741 179.045 160.019 180.043 156.105C181.018 152.28 185.522 152.687 186.781 149.083C188.099 145.309 183.668 143.406 180.885 134.197C179.286 128.908 179.569 127.923 178.078 124.647C174.09 115.891 154.547 119.619 156.741 127.737C157.166 129.307 156.036 131.112 158.145 131.107Z" fill="#2F2E41"/>
</g>
<defs>
<clipPath id="clip0_58_295">
<rect width="218" height="212" fill="white"/>
</clipPath>
</defs>
</svg>
