<svg width="246" height="224" viewBox="0 0 246 224" fill="none" xmlns="http://www.w3.org/2000/svg">
<g clip-path="url(#clip0_55_191)">
<path d="M118.24 44.8846C120.979 42.0908 124.637 41.2427 126.411 42.9901C128.184 44.7375 127.401 48.4182 124.661 51.2125C123.582 52.3438 122.248 53.1996 120.771 53.7082L109.018 65.3986L103.663 59.753L115.818 48.8278C116.3 47.3383 117.13 45.9862 118.24 44.8846V44.8846Z" fill="#FFB6B6"/>
<path d="M80.6527 35.2346L92.9756 62.6377L112.653 51.9607L119.696 55.7073C119.696 55.7073 103.609 82.6648 92.5953 79.5961C81.5811 76.5273 62.0228 48.7018 65.5467 40.114C69.0707 31.5263 80.6527 35.2346 80.6527 35.2346Z" fill="#E6E6E6"/>
<path d="M137.776 50.703C134.915 48.0349 133.97 44.3926 135.664 42.5679C137.358 40.7433 141.05 41.4274 143.911 44.0968C145.069 45.1474 145.958 46.4606 146.506 47.9266L158.484 59.3849L153 64.9049L141.774 53.023C140.276 52.5808 138.904 51.7853 137.776 50.703Z" fill="#A0616A"/>
<path d="M198.114 52.4692L174.993 77.1438C174.993 77.1438 169.801 82.2934 161.258 74.8671C152.716 67.4408 143.219 55.257 143.219 55.257L148.547 49.4444L157.985 57.8843C157.985 57.8843 163.588 60.1443 163.977 61.6066C164.367 63.0689 163.278 63.6738 165.028 63.2052C166.779 62.7366 166.813 61.6913 166.923 63.2766C167.032 64.862 165.963 66.7148 167.986 64.9201C170.008 63.1255 170.612 64.2172 170.612 64.2172L185.389 44.5958C185.389 44.5958 194.938 37.0268 197.683 43.8116C200.428 50.5964 198.114 52.4692 198.114 52.4692V52.4692Z" fill="#FFCF4F"/>
<path d="M75.2491 217.865L84.2345 217.864L88.5089 183.123L75.2473 183.124L75.2491 217.865Z" fill="#FFB6B6"/>
<path d="M106.034 217.661C106.314 218.133 106.461 219.658 106.461 220.207C106.461 221.895 105.096 223.264 103.412 223.264H75.5851C74.4361 223.264 73.5046 222.33 73.5046 221.178V220.017C73.5046 220.017 72.1281 216.527 74.9622 212.225C74.9622 212.225 78.4846 215.593 83.7479 210.317L85.3 207.499L96.5352 215.735L102.763 216.504C104.125 216.672 105.333 216.478 106.034 217.661H106.034Z" fill="#2F2E41"/>
<path d="M178.809 57.5435H201.077V24.5616H178.809V57.5435Z" fill="#2F2E41"/>
<path d="M196.079 47.4868L195.299 38.0403H184.93L182.631 48.0487L196.079 47.4868Z" fill="#A0616A"/>
<path opacity="0.1" d="M196.079 47.4868L195.299 38.0403H184.93L182.631 48.0487L196.079 47.4868Z" fill="black"/>
<path d="M82.0483 36.9932L82.23 24.8449L74.7565 20.175L66.6299 30.1394L82.0483 36.9932Z" fill="#FFB6B6"/>
<path opacity="0.1" d="M82.0484 36.9932L82.5321 25.1476L74.7566 20.175L77.3983 34.8344L82.0484 36.9932Z" fill="black"/>
<path d="M188.482 41.0459C194.741 41.0459 199.816 35.9593 199.816 29.6847C199.816 23.4101 194.741 18.3235 188.482 18.3235C182.222 18.3235 177.148 23.4101 177.148 29.6847C177.148 35.9593 182.222 41.0459 188.482 41.0459Z" fill="#A0616A"/>
<path d="M185.623 17.7321C185.623 17.7321 185.623 13.068 189.943 14.0674C194.264 15.0669 195.593 16.7326 195.593 16.7326C195.593 16.7326 197.255 19.3978 199.914 19.731C202.573 20.0641 204.899 27.7266 204.567 29.3923C204.234 31.0581 202.573 35.389 204.899 37.3879C207.226 39.3868 210.549 42.3852 209.552 45.3835C208.555 48.3819 205.564 56.0443 205.564 56.0443C205.564 56.0443 213.907 57.2667 213.225 62.4857C213.225 62.4857 209.22 59.3758 203.902 59.3758C198.584 59.3758 199.249 49.7053 199.249 49.7053C199.249 49.7053 198.917 43.7178 197.92 42.052C196.923 40.3863 198.252 31.0581 193.267 26.0608C188.281 21.0636 185.623 17.7321 185.623 17.7321V17.7321Z" fill="#2F2E41"/>
<path d="M186.952 16.7327C186.952 16.7327 180.637 18.0653 178.311 24.3951C175.984 30.725 177.159 31.9028 177.159 31.9028C177.159 31.9028 176.645 35.7144 173.822 37.0509C170.999 38.3874 173.325 44.051 173.325 44.051C173.325 44.051 172.661 49.7145 163.687 51.7134C154.714 53.7123 174.94 69.0409 174.94 69.0409C174.94 69.0409 173.486 61.8063 182.792 61.4731C192.098 61.14 180.97 44.051 180.97 44.051L179.973 33.057C179.973 33.057 181.967 20.3973 187.949 18.7316C193.931 17.0658 186.952 16.7327 186.952 16.7327L186.952 16.7327Z" fill="#2F2E41"/>
<path d="M82.0716 28.6252C89.4123 28.6252 95.363 22.6602 95.363 15.302C95.363 7.94376 89.4123 1.97876 82.0716 1.97876C74.731 1.97876 68.7803 7.94376 68.7803 15.302C68.7803 22.6602 74.731 28.6252 82.0716 28.6252Z" fill="#FFB6B6"/>
<path d="M100.198 117.323L87.817 201.78H72.2827L74.3483 153.57L75.4355 128.221L72.2827 116.155C72.2827 116.155 70.8453 113.473 69.6343 110.222C68.2693 106.553 67.1912 102.154 68.7918 100.069C69.3806 99.2997 70.9117 98.7306 72.9924 98.3069C74.2638 98.0465 75.7435 97.8437 77.341 97.6863C86.5275 96.7751 99.5945 97.3442 99.5945 97.3442L99.9267 108.333L100.111 114.469L100.198 117.323Z" fill="#2F2E41"/>
<path d="M24.0896 204.409L32.0053 208.671L52.1738 180.095L40.4912 173.804L24.0896 204.409Z" fill="#FFB6B6"/>
<path d="M51.3049 218.834C51.3284 219.383 50.7387 220.796 50.4793 221.28C49.6822 222.767 47.8332 223.325 46.3495 222.526L21.8367 209.324C20.8246 208.779 20.4448 207.515 20.9886 206.5L21.537 205.477C21.537 205.477 21.9723 201.75 26.5 199.304C26.5 199.304 28.0125 203.943 35.1401 201.792L37.8381 200.046L43.8464 212.632L48.9695 216.263C50.0903 217.057 51.2461 217.459 51.3048 218.834L51.3049 218.834Z" fill="#2F2E41"/>
<path d="M100.111 114.469L93.5396 127.676L74.3483 153.57L42.7544 196.201L29.0713 188.833L66.5781 125.53L69.5014 113.403C69.5014 113.403 69.5014 112.092 69.6343 110.222C69.894 106.519 70.6731 100.62 72.9924 98.3069C73.3064 97.992 73.6477 97.7438 74.0191 97.5773C74.7167 97.2625 75.8764 97.3382 77.341 97.6863C83.4593 99.1514 94.8774 105.445 99.9266 108.333L100.111 114.469H100.111Z" fill="#2F2E41"/>
<path d="M195.234 218.925L187.509 218.924L183.833 189.053L195.236 189.054L195.234 218.925Z" fill="#A0616A"/>
<path d="M168.765 218.749C168.525 219.155 168.398 220.466 168.398 220.938C168.398 222.39 169.572 223.567 171.02 223.567H194.946C195.933 223.567 196.734 222.764 196.734 221.774V220.775C196.734 220.775 197.918 217.774 195.481 214.075C195.481 214.075 192.453 216.971 187.927 212.435L186.593 210.012L176.932 217.094L171.578 217.754C170.406 217.899 169.368 217.732 168.765 218.749H168.765H168.765Z" fill="#2F2E41"/>
<path d="M225.669 209.799L218.527 212.752L203.763 186.545L214.304 182.186L225.669 209.799Z" fill="#A0616A"/>
<path d="M201.134 219.757C201.067 220.224 201.448 221.485 201.628 221.921C202.18 223.263 203.713 223.902 205.052 223.348L227.169 214.2C228.082 213.822 228.517 212.774 228.14 211.858L227.76 210.935C227.76 210.935 227.712 207.709 224.052 205.221C224.052 205.221 222.354 209.057 216.445 206.594L214.289 204.864L208.054 215.104L203.356 217.762C202.328 218.343 201.304 218.586 201.135 219.757L201.134 219.757H201.134Z" fill="#2F2E41"/>
<path d="M198.779 116.457L195.627 128.523L196.466 148.103L197.858 180.623L197.897 181.54L198.054 185.197L198.779 202.082H183.245L176.329 154.911L170.864 117.626L171.437 98.6398L171.467 97.6469C171.467 97.6469 199.25 96.4361 202.27 100.371C205.29 104.307 198.779 116.457 198.779 116.457H198.779Z" fill="#2F2E41"/>
<path d="M220.393 189.943L217.759 191.309L208.02 196.361L206.595 197.1L198.054 185.197L176.329 154.911L170.864 117.626L171.437 98.6398C173.895 97.8558 175.861 97.5349 176.858 98.001C181.346 100.105 181.131 113.896 181.131 113.896L183.864 126.065L196.466 148.103L220.393 189.943Z" fill="#2F2E41"/>
<path d="M164.225 193.667C164.025 193.054 162.51 193.324 162.364 192.775C162.219 192.229 163.673 191.771 164.788 190.231C164.989 189.953 166.256 188.203 165.77 187.467C164.849 186.071 158.44 189.546 156.902 187.596C156.564 187.168 156.425 186.434 155.419 185.066C155.019 184.523 154.762 184.26 154.456 184.268C154.021 184.279 153.865 184.825 153.181 185.813C152.155 187.296 151.785 187.11 151.109 188.324C150.607 189.226 150.548 189.802 150.186 189.836C149.674 189.884 149.463 188.762 148.837 188.718C148.199 188.674 147.56 189.783 147.244 190.65C146.649 192.276 147.017 193.519 147.099 194.758C147.188 196.105 146.979 198.076 145.52 200.606L131.754 222.591C134.71 218.109 143.102 205.887 146.483 201.404C147.46 200.11 148.508 198.811 150.123 198.566C151.677 198.331 153.568 199.102 156.208 199.057C156.517 199.052 157.374 199.026 157.583 198.57C157.756 198.193 157.327 197.866 157.483 197.512C157.692 197.036 158.633 197.24 159.914 196.925C160.818 196.702 161.432 196.335 161.96 196.018C162.119 195.923 164.491 194.483 164.225 193.667H164.225Z" fill="#FFEBAD"/>
<path d="M128.169 198.8C127.811 198.721 127.506 199.545 127.196 199.458C126.886 199.372 127.081 198.524 126.649 197.531C126.571 197.352 126.08 196.224 125.579 196.25C124.63 196.301 124.482 200.457 123.084 200.651C122.777 200.694 122.377 200.55 121.417 200.65C121.035 200.69 120.833 200.741 120.748 200.894C120.628 201.111 120.85 201.345 121.137 201.967C121.567 202.9 121.369 203.028 121.769 203.711C122.066 204.218 122.331 204.413 122.243 204.601C122.119 204.867 121.508 204.647 121.306 204.942C121.1 205.243 121.459 205.878 121.792 206.284C122.417 207.045 123.132 207.223 123.762 207.54C124.447 207.885 125.352 208.556 126.169 210.004L132.962 223.12C131.621 220.373 128.058 212.718 126.839 209.761C126.487 208.907 126.153 208.016 126.499 207.151C126.832 206.319 127.755 205.611 128.495 204.299C128.581 204.146 128.817 203.716 128.654 203.482C128.519 203.288 128.235 203.405 128.106 203.226C127.934 202.986 128.305 202.582 128.52 201.86C128.672 201.352 128.669 200.943 128.667 200.592C128.666 200.487 128.645 198.904 128.169 198.8L128.169 198.8Z" fill="#FFEBAD"/>
<path d="M134.946 202L135.159 200.024L135.29 199.9C135.896 199.326 136.275 198.718 136.417 198.092C136.44 197.993 136.457 197.892 136.475 197.789C136.546 197.383 136.634 196.878 137.024 196.353C137.242 196.061 137.819 195.401 138.414 195.631C138.575 195.692 138.683 195.796 138.758 195.907C138.777 195.887 138.797 195.868 138.817 195.848C139.074 195.597 139.254 195.505 139.427 195.417C139.56 195.349 139.698 195.279 139.93 195.093C140.032 195.011 140.114 194.937 140.183 194.876C140.392 194.689 140.659 194.47 141.024 194.557C141.412 194.663 141.545 195.034 141.633 195.279C141.791 195.717 141.839 196.018 141.871 196.218C141.883 196.291 141.896 196.373 141.907 196.399C141.991 196.614 143.057 196.669 143.458 196.692C144.359 196.741 145.138 196.784 145.326 197.402C145.46 197.845 145.18 198.327 144.468 198.875C144.247 199.045 144.025 199.163 143.832 199.25C143.951 199.363 144.045 199.516 144.051 199.725C144.064 200.218 143.559 200.597 142.551 200.852C142.3 200.916 141.963 201.001 141.522 200.979C141.314 200.969 141.132 200.937 140.977 200.907C140.953 200.996 140.911 201.088 140.835 201.176C140.61 201.433 140.247 201.499 139.755 201.354C139.212 201.202 138.783 200.995 138.404 200.814C138.073 200.656 137.788 200.521 137.548 200.484C137.103 200.422 136.688 200.697 136.191 201.064L134.946 202H134.946H134.946Z" fill="#FFEBAD"/>
<path d="M138.499 190.745L136.538 191.039L136.385 190.944C135.678 190.502 134.995 190.289 134.355 190.31C134.253 190.313 134.151 190.322 134.048 190.33C133.638 190.364 133.128 190.407 132.523 190.162C132.186 190.025 131.402 189.633 131.474 188.998C131.491 188.827 131.564 188.695 131.652 188.594C131.629 188.581 131.605 188.567 131.58 188.552C131.273 188.366 131.139 188.215 131.01 188.07C130.911 187.958 130.808 187.842 130.569 187.664C130.465 187.586 130.373 187.526 130.296 187.474C130.062 187.319 129.784 187.116 129.774 186.739C129.779 186.336 130.103 186.113 130.317 185.966C130.7 185.702 130.978 185.578 131.162 185.497C131.23 185.467 131.306 185.433 131.329 185.417C131.514 185.28 131.298 184.233 131.218 183.838C131.037 182.952 130.88 182.185 131.429 181.847C131.822 181.604 132.359 181.754 133.068 182.305C133.288 182.476 133.458 182.661 133.592 182.826C133.67 182.683 133.794 182.552 133.994 182.494C134.466 182.356 134.96 182.749 135.462 183.663C135.588 183.889 135.755 184.195 135.846 184.628C135.889 184.832 135.904 185.017 135.915 185.175C136.006 185.175 136.106 185.193 136.21 185.245C136.515 185.397 136.671 185.732 136.655 186.246C136.647 186.811 136.556 187.28 136.477 187.693C136.409 188.054 136.351 188.365 136.376 188.606C136.429 189.054 136.8 189.387 137.28 189.775L138.499 190.745H138.499V190.745Z" fill="#FFEBAD"/>
<path d="M138.763 184.842L138.977 182.866L139.108 182.742C139.714 182.168 140.093 181.56 140.235 180.934C140.258 180.835 140.275 180.734 140.293 180.631C140.364 180.225 140.452 179.72 140.842 179.195C141.06 178.903 141.637 178.243 142.232 178.473C142.392 178.534 142.501 178.638 142.576 178.749C142.595 178.729 142.614 178.71 142.635 178.69C142.892 178.439 143.072 178.347 143.245 178.259C143.378 178.191 143.515 178.121 143.748 177.935C143.85 177.853 143.932 177.78 144 177.718C144.209 177.531 144.476 177.312 144.842 177.399C145.23 177.505 145.363 177.876 145.451 178.121C145.608 178.559 145.657 178.86 145.689 179.06C145.701 179.133 145.714 179.215 145.724 179.241C145.809 179.456 146.874 179.511 147.275 179.535C148.176 179.584 148.956 179.626 149.144 180.244C149.278 180.687 148.998 181.169 148.286 181.717C148.064 181.887 147.843 182.005 147.65 182.092C147.769 182.205 147.863 182.358 147.869 182.567C147.882 183.06 147.377 183.439 146.368 183.694C146.118 183.758 145.78 183.843 145.339 183.822C145.131 183.811 144.949 183.779 144.794 183.75C144.771 183.838 144.729 183.93 144.652 184.018C144.428 184.275 144.065 184.341 143.573 184.196C143.03 184.044 142.6 183.837 142.221 183.656C141.891 183.498 141.605 183.363 141.366 183.326C140.921 183.264 140.505 183.539 140.009 183.906L138.763 184.842H138.763Z" fill="#FFEBAD"/>
<path d="M132.405 222.703L132.058 222.36L132.064 221.872L132.058 222.36L131.576 222.309C131.579 222.264 131.575 222.157 131.572 221.991C131.553 221.082 131.496 218.316 131.88 214.065C132.148 211.098 132.597 208.086 133.213 205.111C133.83 202.132 134.47 199.915 134.985 198.133C135.373 196.789 135.765 195.515 136.147 194.273C137.168 190.956 138.132 187.823 138.729 184.249C138.862 183.451 139.14 181.79 138.572 179.83C138.242 178.693 137.678 177.623 136.894 176.651L137.653 176.037C138.518 177.111 139.142 178.296 139.508 179.559C140.137 181.732 139.835 183.542 139.69 184.411C139.083 188.048 138.109 191.212 137.078 194.561C136.698 195.798 136.307 197.067 135.921 198.405C135.411 200.17 134.776 202.368 134.167 205.309C133.558 208.248 133.115 211.223 132.85 214.153C132.471 218.35 132.528 221.075 132.546 221.971C132.556 222.449 132.558 222.549 132.405 222.703V222.703H132.405Z" fill="#FFEBAD"/>
<path d="M134.813 177.775C134.774 177.767 134.735 177.757 134.696 177.745C133.896 177.52 133.254 176.867 132.788 175.803C132.57 175.303 132.518 174.776 132.415 173.726C132.399 173.564 132.328 172.745 132.416 171.66C132.473 170.95 132.549 170.665 132.741 170.442C132.955 170.192 133.243 170.05 133.548 169.978C133.556 169.884 133.587 169.792 133.647 169.705C133.898 169.344 134.317 169.492 134.545 169.57C134.659 169.611 134.802 169.663 134.963 169.69C135.215 169.734 135.366 169.69 135.594 169.623C135.813 169.56 136.084 169.481 136.46 169.488C137.2 169.498 137.748 169.831 137.929 169.941C138.881 170.515 139.21 171.43 139.59 172.489C139.666 172.701 139.917 173.469 139.975 174.457C140.017 175.17 139.924 175.462 139.817 175.67C139.599 176.099 139.265 176.298 138.435 176.717C137.568 177.155 137.133 177.375 136.777 177.487C135.947 177.749 135.426 177.912 134.813 177.775V177.775Z" fill="#FFEBAD"/>
<path d="M246 223.645C246 223.841 245.841 224 245.646 224H0V223.29H245.646C245.841 223.29 246 223.449 246 223.645Z" fill="#FFEBAD"/>
<path d="M68.3386 27.5693L83.438 34.8344C83.438 34.8344 99.4434 82.3601 99.4434 84.7817C99.4434 87.2034 103.973 88.717 101.255 91.4414C98.5374 94.1658 106.314 96.4731 102.124 98.6492C97.9334 100.825 71.7937 112.729 68.8871 111.655C60.8705 108.695 69.2268 97.8162 69.2268 97.8162C69.2268 97.8162 63.2049 92.9549 64.1108 90.5333C65.0168 88.1116 58.675 41.7968 58.675 41.7968L68.3386 27.5693V27.5693Z" fill="#E6E6E6"/>
<path d="M81.26 18.4932L82.9696 21.9205C82.9696 21.9205 84.6791 15.7514 87.4144 14.3805C90.1496 13.0096 90.4915 10.9532 90.4915 10.9532C90.4915 10.9532 93.9106 15.4087 96.304 14.3805C98.6973 13.3523 99.7231 12.6668 96.9878 8.55411C94.2525 4.44137 94.9364 6.49774 94.9364 6.49774C94.9364 6.49774 92.543 3.07046 92.8849 4.09864C93.2268 5.12682 90.8334 1.35682 90.8334 2.385C90.8334 3.41318 89.1239 0.328633 89.1239 1.35682C89.1239 2.385 81.9438 -1.04228 82.9695 0.328637C83.9953 1.69955 76.8152 -2.41319 73.3961 3.07046C69.977 8.55411 65.2361 7.54001 66.9227 10.9602C68.6094 14.3805 67.9256 23.6341 67.9256 23.6341H72.6409C72.6409 23.6341 77.499 14.3805 81.26 18.4932V18.4932Z" fill="#2F2E41"/>
<path d="M181.886 47.5483L182.163 47.4699L195.778 43.613L206.649 58.4459L199.401 89.3224L202.119 101.734C202.119 101.734 180.074 95.9821 171.317 100.825C171.317 100.825 170.713 98.0653 171.317 96.721C171.921 95.3766 172.826 89.7824 171.921 87.2821C171.015 84.7817 173.732 72.976 173.732 72.976C173.732 72.976 172.826 65.1055 176.752 61.1703C180.678 57.235 181.886 47.5483 181.886 47.5483Z" fill="#FFCF4F"/>
<path d="M169.521 103.302L121.68 79.4695C121.442 79.351 121.234 79.1876 121.061 78.9843L113.597 70.1656C113.102 69.5807 112.994 68.7553 113.324 68.0629L127.321 38.626C127.566 38.1101 128.023 37.7292 128.573 37.5808C129.125 37.4327 129.71 37.5331 130.18 37.8563L163.919 61.0553C164.612 61.5314 164.921 62.3949 164.689 63.204L157.839 87.0992C157.652 87.7528 157.891 88.466 158.433 88.874L171.985 99.0616C172.714 99.6103 172.966 100.611 172.584 101.441L172.156 102.372C171.933 102.855 171.535 103.218 171.034 103.395C170.822 103.47 170.603 103.507 170.386 103.507C170.089 103.507 169.795 103.439 169.521 103.302V103.302Z" fill="#FFCF4F"/>
<path d="M169.139 97.5016L155.821 86.3951C155.707 86.2983 155.616 86.1802 155.553 86.0501C155.432 85.8049 155.408 85.5112 155.498 85.2418L163.087 62.9835C163.284 62.4083 163.072 61.7666 162.571 61.4215L130.953 39.7231C130.63 39.4991 130.225 39.4295 129.844 39.5294C129.461 39.6293 129.144 39.8896 128.969 40.2438L115.639 67.3758C115.437 67.7845 115.452 68.2537 115.675 68.6442C115.702 68.6986 115.736 68.7501 115.775 68.7985L122.479 77.668C122.609 77.8375 122.778 77.9767 122.968 78.0706L167.68 99.7719C167.868 99.8628 168.07 99.9082 168.272 99.9082C168.623 99.9082 168.973 99.7719 169.233 99.5086C169.263 99.4753 169.293 99.445 169.323 99.4087C169.535 99.1514 169.643 98.8214 169.628 98.4854C169.61 98.104 169.432 97.7468 169.139 97.5016Z" fill="#F2F2F2"/>
<path d="M120.884 65.7109C120.995 65.7109 121.101 65.65 121.154 65.5443L131.992 43.9605C132.068 43.8111 132.008 43.6291 131.859 43.554C131.709 43.4785 131.528 43.539 131.453 43.6882L120.615 65.2721C120.54 65.4215 120.6 65.6035 120.749 65.6786C120.792 65.7006 120.839 65.7109 120.884 65.7109Z" fill="#6C63FF"/>
<path d="M126.622 69.3435C126.733 69.3435 126.839 69.2826 126.892 69.177L137.73 47.5931C137.805 47.4437 137.745 47.2617 137.596 47.1866C137.447 47.111 137.266 47.1717 137.191 47.3209L126.353 68.9047C126.278 69.0541 126.338 69.2361 126.487 69.3112C126.53 69.3332 126.577 69.3435 126.622 69.3435Z" fill="#6C63FF"/>
<path d="M131.454 72.3706C131.564 72.3706 131.671 72.3097 131.724 72.204L142.562 50.6202C142.637 50.4707 142.577 50.2888 142.428 50.2137C142.279 50.1382 142.098 50.1986 142.023 50.3479L131.184 71.9318C131.109 72.0812 131.169 72.2631 131.318 72.3382C131.362 72.3603 131.408 72.3706 131.454 72.3706V72.3706Z" fill="#6C63FF"/>
<path d="M114.348 69.4469C118.095 68.3372 121.704 69.3758 122.408 71.7665C123.112 74.1571 120.646 76.994 116.897 78.1037C115.405 78.5675 113.825 78.6666 112.287 78.3926L96.3504 82.8937L94.4026 75.352L110.32 71.7155C111.463 70.6477 112.844 69.8698 114.348 69.4469Z" fill="#FFB6B6"/>
<path d="M86.1597 42.7193L83.6619 72.6733L106.036 72.9144L110.379 79.6168C110.379 79.6168 83.2596 95.3569 75.1165 87.3142C66.9735 79.2716 63.3502 45.4274 70.5901 39.6342C77.83 33.8411 86.1597 42.7193 86.1597 42.7193Z" fill="#E6E6E6"/>
<path d="M159.454 96.8029C155.558 96.5087 152.551 94.255 152.738 91.7694C152.925 89.2838 156.235 87.5079 160.133 87.8027C161.692 87.8991 163.205 88.3682 164.545 89.1708L181.039 90.6263L180.193 98.3702L164.023 96.1133C162.577 96.7056 161.01 96.9421 159.454 96.8029Z" fill="#A0616A"/>
<path d="M207.69 60.4249L204.995 94.1692C204.995 94.1692 204.146 101.441 192.848 100.985C181.55 100.529 166.543 96.9544 166.543 96.9544L167.085 89.0794L179.714 89.767C179.714 89.767 185.499 88.0262 186.714 88.9248C187.929 89.8233 187.454 90.9774 188.53 89.5159C189.606 88.0543 188.982 87.2164 190.055 88.3862C191.128 89.556 191.446 91.6725 191.909 89.0049C192.371 86.3373 193.522 86.8126 193.522 86.8126L192.846 62.237C192.846 62.237 195.592 50.3488 201.962 53.9312C208.332 57.5137 207.69 60.4249 207.69 60.4249Z" fill="#FFCF4F"/>
</g>
<defs>
<clipPath id="clip0_55_191">
<rect width="246" height="224" fill="white"/>
</clipPath>
</defs>
</svg>
