<svg width="300" height="256" viewBox="0 0 300 256" fill="none" xmlns="http://www.w3.org/2000/svg">
<g clip-path="url(#clip0_131_291)">
<path d="M139.676 234.268C141.415 234.879 143.283 235.032 145.099 234.713C146.914 234.393 148.617 233.611 150.043 232.442C153.674 229.394 154.813 224.374 155.739 219.725L158.478 205.974L152.742 209.924C148.617 212.764 144.399 215.696 141.543 219.81C138.687 223.924 137.441 229.54 139.735 233.992" fill="#E4E4E4"/>
<path d="M140.562 251.874C139.84 246.614 139.097 241.286 139.605 235.97C140.055 231.248 141.495 226.638 144.428 222.856C145.984 220.852 147.878 219.136 150.025 217.783C150.585 217.43 151.1 218.317 150.542 218.669C146.828 221.016 143.956 224.482 142.338 228.567C140.552 233.11 140.266 238.062 140.573 242.887C140.759 245.806 141.154 248.705 141.551 251.601C141.583 251.731 141.563 251.869 141.496 251.987C141.43 252.104 141.321 252.191 141.193 252.231C141.062 252.267 140.922 252.249 140.804 252.182C140.686 252.115 140.599 252.004 140.562 251.873L140.562 251.874Z" fill="#F2F2F2"/>
<path d="M145.758 243.434C146.504 244.568 147.53 245.491 148.736 246.113C149.942 246.736 151.288 247.038 152.644 246.989C156.131 246.823 159.037 244.391 161.652 242.081L169.389 235.249L164.269 235.004C160.586 234.828 156.808 234.662 153.301 235.799C149.793 236.936 146.559 239.668 145.917 243.299" fill="#E4E4E4"/>
<path d="M138.521 254.897C141.997 248.747 146.028 241.912 153.232 239.728C155.235 239.122 157.335 238.905 159.419 239.089C160.076 239.145 159.912 240.158 159.256 240.102C155.763 239.812 152.276 240.734 149.382 242.714C146.598 244.609 144.43 247.244 142.595 250.038C141.471 251.749 140.465 253.533 139.458 255.315C139.136 255.884 138.196 255.473 138.521 254.897Z" fill="#F2F2F2"/>
<path d="M253.893 180.353H0V0H253.893V180.353Z" fill="white"/>
<path d="M20.6818 74.0741C20.0257 74.0741 19.3965 74.3347 18.9326 74.7987C18.4686 75.2626 18.208 75.8918 18.208 76.5479C18.208 77.204 18.4686 77.8333 18.9326 78.2972C19.3965 78.7611 20.0257 79.0218 20.6818 79.0218H106.422C107.077 79.0205 107.705 78.7593 108.168 78.2955C108.631 77.8317 108.891 77.2032 108.891 76.5479C108.891 75.8926 108.631 75.2641 108.168 74.8003C107.705 74.3365 107.077 74.0753 106.422 74.0741H20.6818Z" fill="#FFCF4F"/>
<path d="M20.6817 88.9171C20.0256 88.9157 19.3958 89.175 18.9309 89.638C18.466 90.1009 18.204 90.7296 18.2026 91.3857C18.2013 92.0418 18.4606 92.6716 18.9235 93.1365C19.3865 93.6014 20.0152 93.8634 20.6713 93.8648H106.485C107.141 93.8648 107.771 93.6041 108.234 93.1402C108.698 92.6763 108.959 92.047 108.959 91.3909C108.959 90.7348 108.698 90.1056 108.234 89.6417C107.771 89.1778 107.141 88.9171 106.485 88.9171H20.6817Z" fill="#FFCF4F"/>
<path d="M20.6817 103.548C20.0256 103.546 19.3958 103.806 18.9309 104.269C18.466 104.732 18.204 105.36 18.2026 106.016C18.2013 106.673 18.4606 107.302 18.9235 107.767C19.3865 108.232 20.0152 108.494 20.6713 108.495H39.9819C40.638 108.495 41.2673 108.235 41.7312 107.771C42.1951 107.307 42.4558 106.678 42.4558 106.022C42.4558 105.366 42.1951 104.736 41.7312 104.272C41.2673 103.808 40.638 103.548 39.9819 103.548H20.6817Z" fill="#FFCF4F"/>
<path d="M253.893 180.353H0V0H253.893V180.353ZM4.17358 176.179H249.719V4.17358H4.17358V176.179Z" fill="#E5E5E5"/>
<path d="M174.005 140.724C172.825 140.722 171.693 141.189 170.858 142.022C170.022 142.854 169.551 143.985 169.549 145.164C169.546 146.344 170.012 147.476 170.844 148.312C171.676 149.149 172.806 149.62 173.986 149.623H216.476C217.061 149.624 217.64 149.509 218.18 149.286C218.721 149.063 219.212 148.735 219.626 148.322C220.039 147.908 220.367 147.418 220.591 146.877C220.815 146.337 220.931 145.758 220.931 145.174C220.931 144.589 220.815 144.01 220.591 143.47C220.367 142.929 220.039 142.439 219.626 142.025C219.212 141.612 218.721 141.284 218.18 141.061C217.64 140.838 217.061 140.723 216.476 140.724H174.005Z" fill="#E4E4E4"/>
<path d="M174.005 86.8348C172.825 86.8332 171.693 87.3 170.858 88.1327C170.022 88.9654 169.551 90.0957 169.549 91.2754C169.546 92.455 170.012 93.5874 170.844 94.4235C171.676 95.2597 172.806 95.7313 173.986 95.7347H216.476C217.061 95.7352 217.64 95.6206 218.18 95.3972C218.721 95.1738 219.212 94.8462 219.626 94.4329C220.039 94.0196 220.367 93.5289 220.591 92.9887C220.815 92.4485 220.931 91.8695 220.931 91.2848C220.931 90.7 220.815 90.121 220.591 89.5808C220.367 89.0406 220.039 88.5499 219.626 88.1366C219.212 87.7233 218.721 87.3957 218.18 87.1723C217.64 86.9489 217.061 86.8343 216.476 86.8348H174.005Z" fill="#E4E4E4"/>
<path d="M20.6817 142.785C20.3568 142.784 20.035 142.847 19.7346 142.971C19.4342 143.095 19.1611 143.276 18.9309 143.506C18.7007 143.735 18.5179 144.007 18.3929 144.307C18.268 144.607 18.2033 144.928 18.2026 145.253C18.202 145.578 18.2653 145.9 18.389 146.2C18.5126 146.501 18.6943 146.774 18.9235 147.004C19.1528 147.234 19.4251 147.417 19.725 147.542C20.0248 147.667 20.3464 147.732 20.6713 147.732H106.485C107.141 147.732 107.771 147.472 108.234 147.008C108.698 146.544 108.959 145.915 108.959 145.258C108.959 144.602 108.698 143.973 108.234 143.509C107.771 143.045 107.141 142.785 106.485 142.785H20.6817Z" fill="#E4E4E4"/>
<path d="M20.6817 157.415C20.3568 157.415 20.035 157.478 19.7346 157.602C19.4342 157.725 19.1611 157.907 18.9309 158.136C18.7007 158.366 18.5179 158.638 18.393 158.938C18.268 159.238 18.2033 159.559 18.2026 159.884C18.202 160.209 18.2653 160.531 18.389 160.831C18.5126 161.132 18.6943 161.405 18.9235 161.635C19.1528 161.865 19.4251 162.048 19.725 162.173C20.0248 162.298 20.3464 162.362 20.6713 162.363H39.9819C40.638 162.363 41.2673 162.102 41.7312 161.638C42.1951 161.175 42.4558 160.545 42.4558 159.889C42.4558 159.233 42.1951 158.604 41.7312 158.14C41.2673 157.676 40.638 157.415 39.9819 157.415H20.6817Z" fill="#E4E4E4"/>
<path d="M20.6818 127.942C20.0257 127.942 19.3965 128.202 18.9326 128.666C18.4686 129.13 18.208 129.759 18.208 130.416C18.208 131.072 18.4686 131.701 18.9326 132.165C19.3965 132.629 20.0257 132.889 20.6818 132.889H106.422C107.077 132.888 107.705 132.627 108.168 132.163C108.631 131.699 108.891 131.071 108.891 130.416C108.891 129.76 108.631 129.132 108.168 128.668C107.705 128.204 107.077 127.943 106.422 127.942H20.6818Z" fill="#E4E4E4"/>
<path d="M20.6818 20.2064C20.0257 20.2064 19.3965 20.4671 18.9326 20.931C18.4686 21.3949 18.208 22.0242 18.208 22.6802C18.208 23.3363 18.4686 23.9656 18.9326 24.4295C19.3965 24.8934 20.0257 25.1541 20.6818 25.1541H106.422C107.077 25.1528 107.705 24.8917 108.168 24.4279C108.631 23.9641 108.891 23.3355 108.891 22.6802C108.891 22.025 108.631 21.3964 108.168 20.9326C107.705 20.4688 107.077 20.2077 106.422 20.2064H20.6818Z" fill="#E4E4E4"/>
<path d="M20.6817 35.0494C20.3568 35.0488 20.035 35.1121 19.7346 35.2358C19.4342 35.3594 19.1611 35.5411 18.9309 35.7703C18.7007 35.9996 18.5179 36.2719 18.3929 36.5718C18.268 36.8716 18.2033 37.1932 18.2026 37.5181C18.202 37.8429 18.2653 38.1647 18.389 38.4651C18.5126 38.7655 18.6943 39.0386 18.9235 39.2688C19.1528 39.499 19.4251 39.6818 19.725 39.8068C20.0248 39.9317 20.3464 39.9964 20.6713 39.9971H106.485C106.81 39.9971 107.132 39.9331 107.432 39.8088C107.732 39.6845 108.005 39.5022 108.234 39.2725C108.464 39.0428 108.646 38.7701 108.771 38.47C108.895 38.1698 108.959 37.8481 108.959 37.5233C108.959 37.1984 108.895 36.8767 108.771 36.5766C108.646 36.2764 108.464 36.0037 108.234 35.774C108.005 35.5443 107.732 35.3621 107.432 35.2378C107.132 35.1134 106.81 35.0494 106.485 35.0494H20.6817Z" fill="#E4E4E4"/>
<path d="M20.6817 49.6802C20.0256 49.6788 19.3958 49.9381 18.9309 50.4011C18.466 50.864 18.204 51.4927 18.2026 52.1488C18.2013 52.8049 18.4606 53.4347 18.9235 53.8996C19.3865 54.3645 20.0152 54.6264 20.6713 54.6278H39.9819C40.638 54.6278 41.2673 54.3672 41.7312 53.9033C42.1951 53.4393 42.4558 52.8101 42.4558 52.154C42.4558 51.4979 42.1951 50.8687 41.7312 50.4047C41.2673 49.9408 40.638 49.6802 39.9819 49.6802H20.6817Z" fill="#E4E4E4"/>
<path d="M174.005 32.9884C172.825 32.9868 171.693 33.4536 170.858 34.2863C170.022 35.1189 169.551 36.2493 169.549 37.4289C169.546 38.6086 170.012 39.7409 170.844 40.5771C171.676 41.4133 172.806 41.8849 173.986 41.8882H216.476C217.061 41.8888 217.64 41.7741 218.18 41.5508C218.721 41.3274 219.212 40.9997 219.626 40.5864C220.039 40.1732 220.367 39.6824 220.591 39.1422C220.815 38.6021 220.931 38.0231 220.931 37.4383C220.931 36.8536 220.815 36.2746 220.591 35.7344C220.367 35.1942 220.039 34.7035 219.626 34.2902C219.212 33.8769 218.721 33.5492 218.18 33.3259C217.64 33.1025 217.061 32.9878 216.476 32.9884H174.005Z" fill="#E4E4E4"/>
<path d="M182.956 45.3764C187.363 45.3764 190.936 41.8035 190.936 37.396C190.936 32.9886 187.363 29.4156 182.956 29.4156C178.549 29.4156 174.976 32.9886 174.976 37.396C174.976 41.8035 178.549 45.3764 182.956 45.3764Z" fill="#CACACA"/>
<path d="M196.904 93.2145C196.815 93.8552 196.869 94.5074 197.059 95.1253C197.25 95.7432 197.574 96.3117 198.009 96.7908C198.443 97.2699 198.977 97.648 199.574 97.8983C200.17 98.1487 200.814 98.2652 201.46 98.2398L205.698 107.417L211.903 106.202L205.736 93.3258C205.622 92.2431 205.114 91.24 204.309 90.5067C203.504 89.7734 202.458 89.3608 201.37 89.347C200.281 89.3333 199.225 89.7194 198.402 90.4322C197.579 91.145 197.046 92.135 196.904 93.2145V93.2145Z" fill="#FFB6B6"/>
<path d="M239.835 127.945L222.544 119.392L210.343 98.6847L201.814 102.81L212.882 126.732L240.842 142.873L239.835 127.945Z" fill="#3F3D56"/>
<path d="M200.798 250.361L195.363 250.36L192.777 234.689L200.799 234.689L200.798 250.361Z" fill="#FFB6B6"/>
<path d="M202.185 255.63L184.659 255.629V255.407C184.659 253.598 185.378 251.863 186.657 250.584C187.936 249.305 189.671 248.586 191.48 248.586H191.481L202.185 248.586L202.185 255.63Z" fill="#2F2E41"/>
<path d="M255.055 240.392L251.262 244.285L238.231 235.204L243.828 229.457L255.055 240.392Z" fill="#FFB6B6"/>
<path d="M259.796 243.075L247.567 255.63L247.409 255.475C246.113 254.213 245.371 252.487 245.347 250.678C245.323 248.869 246.019 247.125 247.281 245.829L247.282 245.828L254.75 238.16L259.796 243.075Z" fill="#2F2E41"/>
<path d="M207.519 157.092H203.759C193.986 167.772 186.526 180.356 181.847 194.055L177.356 207.205L193.363 240.718L203.35 240.896L191.935 205.316L203.436 190.065L204.015 220.723L241.032 240.126L248.441 229.182L218.319 212.711L223.449 186.633C223.449 186.633 233.769 178.027 227.759 164.572L207.519 157.092Z" fill="#2F2E41"/>
<path d="M256.996 122.964L241.374 116.122L224.18 123.741C224.18 123.741 219.311 126.51 222.415 133.604L203.759 157.092C203.759 157.092 203.794 157.102 227.239 164.572L248.392 145.944C251.604 143.115 254.069 139.538 255.57 135.53C257.071 131.522 257.561 127.206 256.996 122.964V122.964Z" fill="#3F3D56"/>
<path d="M254.375 115.92C260.389 115.92 265.264 111.044 265.264 105.03C265.264 99.0164 260.389 94.1411 254.375 94.1411C248.361 94.1411 243.485 99.0164 243.485 105.03C243.485 111.044 248.361 115.92 254.375 115.92Z" fill="#FFB6B6"/>
<path d="M268.477 90.5798C265.978 88.5467 262.102 88.1028 259.522 90.0322C255.022 87.6705 248.941 88.9024 245.716 92.8292C244.555 94.2423 243.733 96.1539 244.307 97.89C244.881 99.6261 247.358 100.647 248.649 99.3516L248.626 99.8851C249.789 101.05 250.595 102.522 250.95 104.129C251.305 105.736 251.194 107.411 250.629 108.957C250.065 110.503 249.071 111.855 247.764 112.856C246.457 113.856 244.892 114.462 243.252 114.604C246.821 116.045 250.389 117.487 253.957 118.928C255.459 119.535 257.008 120.151 258.627 120.143C260.247 120.134 261.973 119.348 262.601 117.855C263.053 119.24 263.504 120.625 263.956 122.01C266.616 117.778 268.804 113.268 270.48 108.56C271.561 105.525 272.434 102.351 272.317 99.131C272.201 95.9116 270.976 92.6129 268.477 90.5798Z" fill="#2F2E41"/>
<path d="M182.956 153.112C187.363 153.112 190.936 149.539 190.936 145.131C190.936 140.724 187.363 137.151 182.956 137.151C178.549 137.151 174.976 140.724 174.976 145.131C174.976 149.539 178.549 153.112 182.956 153.112Z" fill="#CACACA"/>
<path d="M207.784 99.2652C212.192 99.2652 215.764 95.6923 215.764 91.2848C215.764 86.8774 212.192 83.3044 207.784 83.3044C203.377 83.3044 199.804 86.8774 199.804 91.2848C199.804 95.6923 203.377 99.2652 207.784 99.2652Z" fill="#FFCF4F"/>
<path d="M207.988 88.7809C207.899 89.4216 207.952 90.0738 208.143 90.6917C208.334 91.3096 208.658 91.8781 209.093 92.3572C209.527 92.8363 210.061 93.2144 210.657 93.4647C211.254 93.7151 211.898 93.8316 212.544 93.8062L216.782 102.984L222.987 101.769L216.82 88.8922C216.706 87.8095 216.198 86.8064 215.393 86.0731C214.588 85.3398 213.542 84.9272 212.454 84.9134C211.365 84.8997 210.309 85.2858 209.486 85.9986C208.663 86.7114 208.13 87.7014 207.988 88.7809V88.7809Z" fill="#FFB6B6"/>
<path d="M250.919 123.512L233.628 114.959L221.427 94.2511L212.898 98.3765L223.966 122.299L251.926 138.439L250.919 123.512Z" fill="#3F3D56"/>
<path d="M299.557 255.97H130.638C130.521 255.97 130.408 255.923 130.325 255.84C130.242 255.757 130.195 255.644 130.195 255.527C130.195 255.409 130.242 255.296 130.325 255.213C130.408 255.13 130.521 255.083 130.638 255.083H299.557C299.674 255.083 299.787 255.13 299.87 255.213C299.953 255.296 300 255.409 300 255.527C300 255.644 299.953 255.757 299.87 255.84C299.787 255.923 299.674 255.97 299.557 255.97Z" fill="#CACACA"/>
</g>
<defs>
<clipPath id="clip0_131_291">
<rect width="300" height="255.97" fill="white"/>
</clipPath>
</defs>
</svg>
